<svg xmlns="http://www.w3.org/2000/svg" viewBox="0 0 48 48"><defs><style>.cls-1{fill:#9fdbf3;}.cls-2{fill:#b2e5fb;}.cls-3{fill:#8bd1ea;}.cls-4{fill:#db5669;}.cls-5{fill:#f26674;}</style></defs><title>globe growth</title><g id="globe_growth" data-name="globe growth"><path class="cls-1" d="M37,24A18,18,0,0,1,16,41.75C-.79,38.94-4.67,16.25,10.55,8.11A17.71,17.71,0,0,1,22,6.25,18,18,0,0,1,37,24Z"/><path class="cls-2" d="M37,24a18,18,0,0,1-6.55,13.89h0A18,18,0,0,1,10.55,8.11h0A18,18,0,0,1,37,24Z"/><path class="cls-3" d="M37,25H1a16.68,16.68,0,0,1,0-2H37A16.68,16.68,0,0,1,37,25Z"/><path class="cls-3" d="M22,6.25a17.82,17.82,0,0,0-5.92,0c-6.72,6-6.72,29.51,0,35.5a17.82,17.82,0,0,0,5.92,0C28.68,35.76,28.68,12.24,22,6.25ZM19,41c-2.84,0-6-7-6-17S16.16,7,19,7s6,7,6,17S21.84,41,19,41Z"/><path class="cls-3" d="M32.14,11.7a19,19,0,0,1-26.27,0,11.27,11.27,0,0,1,1.44-1.39,17,17,0,0,0,23.38,0A15.58,15.58,0,0,1,32.14,11.7Z"/><path class="cls-3" d="M32.14,36.29a14.47,14.47,0,0,1-1.44,1.38,17,17,0,0,0-23.39,0A15.58,15.58,0,0,1,5.86,36.3,19,19,0,0,1,32.14,36.29Z"/><path class="cls-4" d="M47,24H44a19,19,0,0,1-5.93,12.79C31.75,42.76,25.19,42,19,42A18,18,0,0,0,36,24H33l7-8C42,18.26,40.54,16.62,47,24Z"/><path class="cls-5" d="M47,24H44a19,19,0,0,1-5.93,12.79C32.16,42.37,26.21,42,21,42A18,18,0,0,0,38,24H36l5.5-6.29Z"/></g></svg>